# xmcd
#
# Track frame offsets: 
#        150
#        16154
#        30947
#        47351
#        62859
#        77880
#        95828
#        113391
#        129593
#        148015
#        165513
#        182258
#        198543
#        215143
#        230783
#
# Disc length: 3309 seconds
#
# Revision: 0
# Processed by: cddbd v1.5.2PL0 Copyright (c) Steve Scherf et al.
# Submitted via: ExactAudioCopy v0.99pb4
#
DISCID=c70ceb0f
DTITLE=เติมรักเพลงหวาน ชุดพิเศษ15 เพลงดัง - ณิชา  ดารินทร์
DYEAR=2008
DGENRE=Country
TTITLE0=ไม่อยากโทร ไม่ต้องโทร
TTITLE1=เมินเมืองพิมาย
TTITLE2=ผู้ชายป้ายแดง
TTITLE3=ฟ้องย่าโม
TTITLE4=คิดถึงทิดโข่ง
TTITLE5=สาวเมืองลำปาง
TTITLE6=สงสารแฟนพี่
TTITLE7=สาวสันป่าตอง
TTITLE8=หน้าบ้านตรงกัน
TTITLE9=แก้มเปื้อนฟองเบียร์
TTITLE10=คาราโอเกะเตะใจ
TTITLE11=คอยพี่ที่กรุงเก่า
TTITLE12=บวชชีหนีอาย
TTITLE13=ไม่คอยอย่าน้อยใจ
TTITLE14=คุณคิดอย่างไร
EXTD=
EXTT0=
EXTT1=
EXTT2=
EXTT3=
EXTT4=
EXTT5=
EXTT6=
EXTT7=
EXTT8=
EXTT9=
EXTT10=
EXTT11=
EXTT12=
EXTT13=
EXTT14=
PLAYORDER=
